<?xml version="1.0" encoding="UTF-8" standalone="no"?>
<svg
   xmlns:dc="http://purl.org/dc/elements/1.1/"
   xmlns:cc="http://creativecommons.org/ns#"
   xmlns:rdf="http://www.w3.org/1999/02/22-rdf-syntax-ns#"
   xmlns:svg="http://www.w3.org/2000/svg"
   xmlns="http://www.w3.org/2000/svg"
   xmlns:sodipodi="http://sodipodi.sourceforge.net/DTD/sodipodi-0.dtd"
   xmlns:inkscape="http://www.inkscape.org/namespaces/inkscape"
   width="1792"
   height="1792"
   viewBox="0 0 1792 1792"
   id="svg2"
   version="1.1"
   inkscape:version="0.91 r13725"
   sodipodi:docname="icon.svg"
   inkscape:export-filename="icon.png"
   inkscape:export-xdpi="25.714285"
   inkscape:export-ydpi="25.714285">
  <metadata
     id="metadata10">
    <rdf:RDF>
      <cc:Work
         rdf:about="">
        <dc:format>image/svg+xml</dc:format>
        <dc:type
           rdf:resource="http://purl.org/dc/dcmitype/StillImage" />
      </cc:Work>
    </rdf:RDF>
  </metadata>
  <defs
     id="defs8" />
  <sodipodi:namedview
     pagecolor="#ffffff"
     bordercolor="#666666"
     borderopacity="1"
     objecttolerance="10"
     gridtolerance="10"
     guidetolerance="10"
     inkscape:pageopacity="0"
     inkscape:pageshadow="2"
     inkscape:window-width="1920"
     inkscape:window-height="1080"
     id="namedview6"
     showgrid="false"
     inkscape:zoom="0.26339286"
     inkscape:cx="655.30926"
     inkscape:cy="1095.435"
     inkscape:window-x="0"
     inkscape:window-y="0"
     inkscape:window-maximized="0"
     inkscape:current-layer="svg2"
     inkscape:snap-bbox="false"
     inkscape:snap-page="true">
    <inkscape:grid
       type="xygrid"
       id="grid4178" />
  </sodipodi:namedview>
  <path
     style="color:#000000;font-style:normal;font-variant:normal;font-weight:normal;font-stretch:normal;font-size:medium;line-height:normal;font-family:sans-serif;text-indent:0;text-align:start;text-decoration:none;text-decoration-line:none;text-decoration-style:solid;text-decoration-color:#000000;letter-spacing:normal;word-spacing:normal;text-transform:none;direction:ltr;block-progression:tb;writing-mode:lr-tb;baseline-shift:baseline;text-anchor:start;white-space:normal;clip-rule:nonzero;display:inline;overflow:visible;visibility:visible;opacity:1;isolation:auto;mix-blend-mode:normal;color-interpolation:sRGB;color-interpolation-filters:linearRGB;solid-color:#000000;solid-opacity:1;fill:#338000;fill-opacity:1;fill-rule:evenodd;stroke:none;stroke-width:110.00423431;stroke-linecap:butt;stroke-linejoin:miter;stroke-miterlimit:4;stroke-dasharray:none;stroke-dashoffset:0;stroke-opacity:1;color-rendering:auto;image-rendering:auto;shape-rendering:auto;text-rendering:auto;enable-background:accumulate"
     d="m 593.40234,196.47266 -77.7832,77.78515 200.46875,200.46875 77.7832,-77.78515 -200.46875,-200.46875 z"
     id="path4146"
     inkscape:connector-curvature="0" />
  <path
     style="color:#000000;font-style:normal;font-variant:normal;font-weight:normal;font-stretch:normal;font-size:medium;line-height:normal;font-family:sans-serif;text-indent:0;text-align:start;text-decoration:none;text-decoration-line:none;text-decoration-style:solid;text-decoration-color:#000000;letter-spacing:normal;word-spacing:normal;text-transform:none;direction:ltr;block-progression:tb;writing-mode:lr-tb;baseline-shift:baseline;text-anchor:start;white-space:normal;clip-rule:nonzero;display:inline;overflow:visible;visibility:visible;opacity:1;isolation:auto;mix-blend-mode:normal;color-interpolation:sRGB;color-interpolation-filters:linearRGB;solid-color:#000000;solid-opacity:1;fill:#338000;fill-opacity:1;fill-rule:evenodd;stroke:none;stroke-width:110.00423431;stroke-linecap:butt;stroke-linejoin:miter;stroke-miterlimit:4;stroke-dasharray:none;stroke-dashoffset:0;stroke-opacity:1;color-rendering:auto;image-rendering:auto;shape-rendering:auto;text-rendering:auto;enable-background:accumulate"
     d="m 1211.9668,188.11914 -203.2539,203.25391 77.7851,77.78515 203.252,-203.2539 -77.7832,-77.78516 z"
     id="path4148"
     inkscape:connector-curvature="0" />
  <path
     style="color:#000000;font-style:normal;font-variant:normal;font-weight:normal;font-stretch:normal;font-size:medium;line-height:normal;font-family:sans-serif;text-indent:0;text-align:start;text-decoration:none;text-decoration-line:none;text-decoration-style:solid;text-decoration-color:#000000;letter-spacing:normal;word-spacing:normal;text-transform:none;direction:ltr;block-progression:tb;writing-mode:lr-tb;baseline-shift:baseline;text-anchor:start;white-space:normal;clip-rule:nonzero;display:inline;overflow:visible;visibility:visible;opacity:1;isolation:auto;mix-blend-mode:normal;color-interpolation:sRGB;color-interpolation-filters:linearRGB;solid-color:#000000;solid-opacity:1;fill:#338000;fill-opacity:1;fill-rule:evenodd;stroke:none;stroke-width:110.00423431;stroke-linecap:butt;stroke-linejoin:miter;stroke-miterlimit:4;stroke-dasharray:none;stroke-dashoffset:0;stroke-opacity:1;color-rendering:auto;image-rendering:auto;shape-rendering:auto;text-rendering:auto;enable-background:accumulate"
     d="m 847.92383,101.39062 0,287.44336 110.00586,0 0,-287.44336 -110.00586,0 z"
     id="path4176"
     inkscape:connector-curvature="0" />
  <path
     style="opacity:1;fill:#ffffff;fill-opacity:1;stroke:none;stroke-width:150;stroke-linecap:round;stroke-linejoin:round;stroke-miterlimit:4;stroke-dasharray:none;stroke-dashoffset:0;stroke-opacity:1"
     d="m 830.3457,1500.6484 c -36.6526,-0.1645 -66.43748,36.2213 -63.66992,71.8555 0.086,28.2526 20.72862,55.4643 48.66602,61.4356 31.80713,9.2265 70.58121,-6.5886 82.55452,-38.4835 13.72184,-31.7466 -0.0689,-74.4579 -33.09554,-87.8603 -10.74809,-4.9362 -22.65413,-7.1666 -34.45508,-6.9473 z"
     id="path4200"
     inkscape:connector-curvature="0" />
  <path
     style="opacity:1;fill:#ffffff;fill-opacity:1;stroke:none;stroke-width:150;stroke-linecap:round;stroke-linejoin:round;stroke-miterlimit:4;stroke-dasharray:none;stroke-dashoffset:0;stroke-opacity:1"
     d="m 1183.8535,625.23633 c -19.2305,0.23798 -36.7841,10.90554 -48.9391,25.27367 -91.7004,83.56572 -175.14266,176.2228 -268.04526,258.22438 -9.54186,-7.00331 -12.80235,-19.01192 -17.31836,-29.44141 -13.75118,-37.95275 -18.54531,-80.26052 -43.67578,-113.20899 -14.15519,-19.08527 -33.81121,-36.79021 -58.09375,-40.41992 -23.35639,-1.74269 -44.76569,11.3801 -62.43555,25.27735 -6.95583,6.24713 -16.64893,13.2449 -14.95312,23.90234 2.54042,13.6886 7.6494,26.80626 11.39646,40.21074 18.44521,58.77777 35.55861,118.62946 38.90237,180.42403 3.67011,48.56128 6.96902,98.18848 -0.01,146.37698 -3.71704,27.5265 -19.57924,51.2466 -35.89648,73.0234 -4.38747,8.6468 1.19555,18.4329 8.64181,23.169 82.77084,83.673 165.24757,167.693 249.92264,249.4326 5.78434,5.3884 14.77864,6.1957 21.10937,1.2558 11.25041,-7.0049 20.60948,-16.6322 32.03996,-23.4092 81.26776,-56.4991 179.00986,-85.6171 256.40236,-148.332 26.4627,-22.6153 51.0589,-51.4686 56.7276,-86.8974 3.1717,-28.0322 -10.5336,-55.4399 -30.4375,-74.4707 -9.6483,-10.1744 -20.7949,-18.8099 -32.0254,-27.1114 -0.06,-11.848 3.9457,-23.7791 0.3613,-35.5 -5.8186,-33.2981 -32.1466,-60.1107 -62.8066,-72.3926 -6.2785,-7.4257 -2.5873,-18.0134 -5.7531,-26.65468 -7.8489,-42.86867 -47.3514,-78.32898 -91.2391,-79.4566 -3.3761,-0.0766 -6.7571,0.0454 -10.1172,0.38476 57.711,-60.65049 119.9882,-116.95928 174.7637,-180.3789 16.5577,-30.95796 8.7195,-73.87456 -20.5772,-94.42636 -13.6674,-10.35073 -30.8201,-15.6378 -47.9443,-14.85489 z"
     id="path4184"
     inkscape:connector-curvature="0" />
  <path
     style="fill:#338000;stroke:#338000;stroke-width:0.88454735"
     d="m 1187.1259,516.99045 c -54.2679,-0.8245 -107.4913,25.06664 -142.2873,66.3671 -45.95625,45.86764 -91.80554,91.84422 -137.80663,137.66784 -26.22356,-43.4218 -65.35429,-80.95072 -114.04384,-97.47307 -48.65141,-15.31598 -102.8518,-4.97507 -145.88371,21.16857 -29.83452,17.6093 -57.6287,40.95812 -74.41058,71.74163 -14.34552,30.13549 -13.13514,65.20761 -4.96844,96.88197 12.54805,56.28554 39.90944,109.23929 43.11586,167.43556 4.56096,47.24385 11.54341,95.21295 3.80611,142.31525 -2.7842,11.3101 -12.15036,18.8346 -20.11984,26.487 -36.77819,37.2263 -74.55618,73.4675 -110.76081,111.2549 -9.58938,10.805 -20.69257,20.957 -26.17224,34.6438 -17.47136,39.4443 -6.97061,90.0708 26.55725,117.789 98.94004,98.1939 196.13621,198.1747 296.49737,294.9184 39.03412,29.8884 100.42824,24.1511 133.06047,-12.693 47.21408,-45.8932 91.61333,-94.7272 141.02093,-138.3122 48.014,-35.1358 104.6733,-55.236 156.5483,-83.7537 58.8133,-31.0802 115.9675,-68.5523 158.3312,-120.6405 31.9985,-39.9784 51.9837,-91.1171 48.6534,-142.7897 -2.3865,-43.123 -20.8934,-84.4757 -49.1248,-116.8746 -4.3242,-5.6557 -10.1315,-10.5403 -13.0276,-16.9731 -2.5991,-15.2201 -6.8994,-30.1005 -13.1749,-44.218 -13.6142,-31.5139 -35.2623,-59.39728 -61.9255,-80.95782 -6.5707,-20.61334 -15.8287,-40.50665 -28.5825,-58.04442 31.6292,-32.92444 67.9113,-62.20488 93.149,-100.73896 39.8711,-67.55956 30.4194,-160.90719 -23.9136,-217.93198 -34.2071,-36.74506 -84.2814,-58.3216 -134.5376,-57.26997 z m 3.6053,120.29279 c 32.5745,-0.27834 61.7587,30.42261 59.5699,62.97598 -0.2151,21.06559 -12.1391,40.97128 -28.5637,53.84795 -57.361,57.55611 -115.3563,114.5671 -172.0709,172.71351 -1.9279,3.92259 3.7555,5.95436 6.4456,3.84013 24.9074,-9.93983 54.6894,-4.89559 76.5174,10.61655 22.0267,14.80819 36.4359,40.89016 36.6036,67.43914 0.4251,7.0041 -0.9508,15.7369 5.334,20.6416 7.7648,6.4312 18.6795,6.7075 26.6697,12.861 23.9506,15.2654 39.6472,44.1082 36.5792,72.6493 -0.8903,6.0935 -2.9976,11.9857 -6.0653,17.3207 26.504,17.5625 53.2544,39.1167 64.2364,70.1091 8.0384,24.1691 -1.2052,50.6595 -16.2107,70.0149 -30.3992,40.6955 -74.427,68.0701 -118.8566,90.9737 -57.8252,30.3821 -119.0118,55.0957 -172.7992,92.644 -11.43766,8.3844 -22.3338,17.5244 -32.41749,27.5013 -87.35585,-87.5814 -174.93714,-174.9422 -262.32716,-262.4905 28.65888,-29.3305 43.44082,-70.366 44.15288,-111.0275 2.03806,-42.1893 -2.94268,-84.2917 -5.33985,-126.32432 -5.33993,-57.34319 -18.64178,-113.85926 -38.83881,-167.77168 -5.11363,-15.71325 -9.67358,-31.65434 -10.36159,-48.22998 8.29421,-9.0067 18.97733,-15.43752 29.28003,-21.85331 16.02058,-8.85478 36.65165,-12.87017 53.08635,-2.97456 21.27955,11.73886 35.17413,32.88276 45.97045,53.99905 13.56922,28.4415 16.85244,60.25778 26.87513,89.91271 5.23724,13.66032 12.9182,27.86996 26.19476,35.0839 9.33849,2.70266 17.90048,-4.3902 23.1861,-11.36078 88.2322,-87.46204 174.8349,-176.57909 264.2659,-262.83338 11.3463,-7.69436 25.4392,-10.30293 38.8839,-10.27851 z M 880.47201,1600.5073 c -22.02186,33.5887 -82.13531,29.8737 -96.50346,-9.0347 -14.55846,-32.258 8.22919,-76.6631 45.08191,-78.1347 33.06737,-3.5941 66.19471,27.0388 60.88499,60.9192 -0.9387,9.3665 -4.37292,18.3654 -9.47263,26.2449 z"
     id="path4"
     inkscape:connector-curvature="0"
     sodipodi:nodetypes="cccccccccccccccccccccccccccccccccccccccccccccccccccccccccccccc" />
</svg>
